<?xml version="1.0" encoding="iso-8859-1"?>
<!-- Generator: Adobe Illustrator 19.0.0, SVG Export Plug-In . SVG Version: 6.00 Build 0)  -->
<svg version="1.1" id="Capa_1" xmlns="http://www.w3.org/2000/svg" xmlns:xlink="http://www.w3.org/1999/xlink" x="0px" y="0px"
	 viewBox="0 0 512 512" style="enable-background:new 0 0 512 512;" xml:space="preserve">
<g>
	<g>
		<g>
			<path d="M79.448,229.517h70.621c5.297,0,8.828-3.531,8.828-8.828c0-5.297-3.531-8.828-8.828-8.828H79.448
				c-5.297,0-8.828,3.531-8.828,8.828C70.621,225.986,74.152,229.517,79.448,229.517z"/>
			<path d="M185.379,247.172H79.448c-5.297,0-8.828,3.531-8.828,8.828c0,5.297,3.531,8.828,8.828,8.828h105.931
				c5.297,0,8.828-3.531,8.828-8.828C194.207,250.703,190.676,247.172,185.379,247.172z"/>
			<path d="M79.448,300.138h35.31c5.297,0,8.828-3.531,8.828-8.828c0-5.297-3.531-8.828-8.828-8.828h-35.31
				c-5.297,0-8.828,3.531-8.828,8.828C70.621,296.607,74.152,300.138,79.448,300.138z"/>
			<path d="M185.379,282.483h-35.31c-5.297,0-8.828,3.531-8.828,8.828c0,5.297,3.531,8.828,8.828,8.828h35.31
				c5.297,0,8.828-3.531,8.828-8.828C194.207,286.014,190.676,282.483,185.379,282.483z"/>
			<path d="M150.069,317.793H79.448c-5.297,0-8.828,3.531-8.828,8.828c0,5.297,3.531,8.828,8.828,8.828h70.621
				c5.297,0,8.828-3.531,8.828-8.828C158.897,321.324,155.366,317.793,150.069,317.793z"/>
			<path d="M497.876,238.345l11.476-11.476c3.531-3.531,3.531-8.828,0-12.359l-32.662-33.545
				c-1.766-19.421-15.89-35.31-35.31-38.841v-27.366c0-24.717-19.421-44.138-44.138-44.138H158.014
				c-4.414-20.303-22.069-35.31-43.255-35.31h-35.31c-24.717,0-44.138,19.421-44.138,44.138v62.676
				C15.007,146.538,0,164.193,0,185.379v247.172c0,24.717,19.421,44.138,44.138,44.138h388.414
				c24.717,0,44.138-19.421,44.138-44.138v-137.71l32.662-32.662c3.531-3.531,3.531-8.828,0-12.359L497.876,238.345z M52.966,79.448
				c0-15.007,11.476-26.483,26.483-26.483h35.31c15.007,0,26.483,11.476,26.483,26.483c0,5.297,3.531,8.828,8.828,8.828h247.172
				c15.007,0,26.483,11.476,26.483,26.483v26.483h-18.538c-4.414-20.303-22.069-35.31-43.255-35.31H114.759
				c-21.186,0-38.841,15.007-43.255,35.31H52.966V79.448z M386.648,141.241H90.041c3.531-10.593,13.241-17.655,24.717-17.655
				h247.172C373.407,123.586,383.117,130.648,386.648,141.241z M459.034,432.552c0,15.007-11.476,26.483-26.483,26.483H44.138
				c-15.007,0-26.483-11.476-26.483-26.483V185.379c0-15.007,11.476-26.483,26.483-26.483h35.31h317.793h35.31
				c15.007,0,26.483,11.476,26.483,26.483V432.552z M476.69,270.124v-10.593l8.828-8.828l5.297,5.297L476.69,270.124z
				 M476.69,234.814v-28.248l14.124,14.124L476.69,234.814z"/>
		</g>
	</g>
</g>
<g>
</g>
<g>
</g>
<g>
</g>
<g>
</g>
<g>
</g>
<g>
</g>
<g>
</g>
<g>
</g>
<g>
</g>
<g>
</g>
<g>
</g>
<g>
</g>
<g>
</g>
<g>
</g>
<g>
</g>
</svg>
