<svg id="Layer_1" enable-background="new 0 0 512.002 512.002" height="512" viewBox="0 0 512.002 512.002" width="512" xmlns="http://www.w3.org/2000/svg"><g><g><path d="m431.004 328.125v-84.375c0-24.116-12.736-43.646-34.07-52.243-11.485-4.628-23.374-5.068-32.688-1.665-4.245-5.4-9.848-9.923-16.578-13.217-12.821-6.274-27.313-7.135-38.889-2.802-6.028-7.121-14.467-12.423-24.63-15.051-8.506-2.2-16.863-2.188-24.042-.279l-1.668-76.708c-.486-22.308-17.512-39.782-38.76-39.782-21.372 0-38.76 17.944-38.76 40v191.486c-4.031-4.004-7.021-8.23-10.101-12.583-7.646-10.808-16.311-23.057-40.015-28.169-20.076-4.329-37.367 5.622-44.936 16.699-5.986 8.762-6.483 18.645-1.328 26.438 1.521 2.298 3.3 4.586 5.184 7.008 6.172 7.935 14.624 18.801 22.902 41.524 11.53 31.65 31.444 45.931 47.446 57.407 15.435 11.068 27.093 19.439 29.821 40.223-5.213.342-9.338 4.667-9.338 9.967v70c0 5.523 4.478 10 10 10h221.227c5.522 0 10-4.477 10-10v-70c0-5.321-4.16-9.659-9.403-9.97 1.33-12.744 4.916-25.72 8.677-39.3 4.891-17.668 9.949-35.936 9.949-54.608zm-29.223 163.877h-201.226v-50h55.609c5.522 0 10-4.477 10-10s-4.478-10-10-10h-46.149c-3.124-31.205-20.97-44.024-38.287-56.443-15.188-10.893-30.895-22.155-40.31-48-9.354-25.676-19.315-38.483-25.908-46.958-1.713-2.202-3.192-4.104-4.289-5.763-.791-1.195.959-3.824 1.161-4.12 3.939-5.769 13.761-10.683 24.205-8.431 16.091 3.47 20.79 10.113 27.904 20.168 5.675 8.023 12.587 17.793 26.428 26.17v4.126c0 5.523 4.478 10 10 10s10-4.477 10-10v-220.748c0-11.028 8.416-20 18.761-20 10.104 0 18.521 9.07 18.763 20.217l2.876 132.249c.121 5.521 4.671 9.937 10.216 9.78 5.521-.12 9.9-4.693 9.78-10.215l-.741-34.078c3.241-2.623 10.557-3.893 18.568-1.821 4.663 1.206 19.876 6.513 19.876 24.178 0 5.523 4.478 10 10 10s10-4.477 10-10c0-3.588-.4-7.062-1.171-10.384 6.193-1.559 14.203-.68 21.029 2.661 5.455 2.669 14.606 9.098 14.606 22.16 0 5.523 4.478 10 10 10s10-4.477 10-10c0-2.937-.28-5.808-.827-8.592 4.261-1.009 10.453-.66 16.803 1.899 6.479 2.61 21.546 11.12 21.546 33.692v84.375c0 15.954-4.48 32.137-9.225 49.27-4.014 14.498-8.132 29.406-9.483 44.606h-46.132c-5.522 0-10 4.477-10 10s4.478 10 10 10h55.617z"/><path d="m147.677 92.003c5.522 0 10-4.477 10-10 0-34.189 27.813-62.003 62.002-62.003s62.003 27.814 62.003 62.003c0 5.523 4.478 10 10 10s10-4.477 10-10c0-45.217-36.786-82.003-82.003-82.003-45.216 0-82.002 36.786-82.002 82.003 0 5.523 4.477 10 10 10z"/><path d="m301.168 422.001h-.008c-5.522 0-9.996 4.477-9.996 10s4.481 10 10.004 10 10-4.477 10-10-4.478-10-10-10z"/></g></g></svg>