<svg xmlns="http://www.w3.org/2000/svg" width="35.162" height="51.436" viewBox="0 0 35.162 51.436">
  <g id="hand" transform="translate(-80.997)">
    <g id="Group_3" data-name="Group 3" transform="translate(80.997)">
      <path id="Path_23" data-name="Path 23" d="M116.159,70.747V62.271a5.44,5.44,0,0,0-3.423-5.248,4.669,4.669,0,0,0-3.284-.167,4.768,4.768,0,0,0-1.665-1.328,5.044,5.044,0,0,0-3.907-.281,5.011,5.011,0,0,0-4.89-1.54L98.823,46a3.9,3.9,0,1,0-7.788.022V65.258a9.1,9.1,0,0,1-1.015-1.264A5.911,5.911,0,0,0,86,61.164a4.414,4.414,0,0,0-4.514,1.678,2.324,2.324,0,0,0-.133,2.656c.153.231.332.461.521.7a13.631,13.631,0,0,1,2.3,4.172,11.526,11.526,0,0,0,4.766,5.767c1.551,1.112,2.722,1.953,3,4.041a1,1,0,0,0-.938,1v7.032a1,1,0,0,0,1,1h22.225a1,1,0,0,0,1-1V81.183a1,1,0,0,0-.945-1,24.753,24.753,0,0,1,.872-3.948A20.763,20.763,0,0,0,116.159,70.747ZM113.223,87.21H93.008V82.187h5.587a1,1,0,0,0,0-2.009H93.958c-.314-3.135-2.107-4.423-3.846-5.67a9.562,9.562,0,0,1-4.05-4.822,15.611,15.611,0,0,0-2.6-4.717c-.172-.221-.321-.412-.431-.579-.079-.12.1-.384.117-.414a2.427,2.427,0,0,1,2.432-.847,3.927,3.927,0,0,1,2.8,2.026,8.412,8.412,0,0,0,2.655,2.629V68.2a1,1,0,0,0,2.009,0V46.021a1.952,1.952,0,0,1,1.885-2.009,2,2,0,0,1,1.885,2.031L97.1,59.329a1,1,0,0,0,2.009-.044l-.074-3.424a2.3,2.3,0,0,1,1.865-.183,2.5,2.5,0,0,1,2,2.429,1,1,0,0,0,2.009,0,4.608,4.608,0,0,0-.118-1.043,3.231,3.231,0,0,1,2.113.267,2.44,2.44,0,0,1,1.467,2.226,1,1,0,1,0,2.009,0,4.472,4.472,0,0,0-.083-.863,2.921,2.921,0,0,1,1.688.191,3.439,3.439,0,0,1,2.165,3.385v8.476a18.987,18.987,0,0,1-.927,4.95,25.369,25.369,0,0,0-.953,4.481h-4.634a1,1,0,1,0,0,2.009h5.587Z" transform="translate(-80.997 -37.783)" fill="#428dff"/>
      <path id="Path_24" data-name="Path 24" d="M138.682,9.243a1,1,0,0,0,1-1,6.229,6.229,0,1,1,12.458,0,1,1,0,1,0,2.009,0,8.238,8.238,0,1,0-16.476,0A1,1,0,0,0,138.682,9.243Z" transform="translate(-131.983)" fill="#428dff"/>
      <path id="Path_25" data-name="Path 25" d="M292.169,422h0a1,1,0,1,0,1.005,1A1,1,0,0,0,292.168,422Z" transform="translate(-270.05 -379.606)" fill="#428dff"/>
    </g>
  </g>
</svg>
