<svg xmlns="http://www.w3.org/2000/svg" width="31.663" height="44.349" viewBox="0 0 31.663 44.349">
  <g id="microphone" transform="translate(-35.782)">
    <path id="Path_26" data-name="Path 26" d="M67.445,113.487a1.329,1.329,0,0,0-2.659,0,13.173,13.173,0,1,1-26.345,0,1.329,1.329,0,0,0-2.659,0,15.852,15.852,0,0,0,14.5,15.775v4.7H44.362a1.329,1.329,0,1,0,0,2.659h14.5a1.329,1.329,0,1,0,0-2.659H52.943v-4.7A15.852,15.852,0,0,0,67.445,113.487Z" transform="translate(0 -92.277)" fill="#428dff"/>
    <path id="Path_27" data-name="Path 27" d="M85.268,29.791a8.59,8.59,0,0,0,8.581-8.58V8.58a8.581,8.581,0,0,0-17.161,0v12.63A8.59,8.59,0,0,0,85.268,29.791ZM79.347,8.58a5.922,5.922,0,0,1,11.843,0v12.63a5.922,5.922,0,0,1-11.843,0Z" transform="translate(-33.655)" fill="#428dff"/>
  </g>
</svg>
