<svg id="save" xmlns="http://www.w3.org/2000/svg" width="36.136" height="36.136" viewBox="0 0 36.136 36.136">
  <path id="Path_28" data-name="Path 28" d="M32,36.136H4.141A4.144,4.144,0,0,1,0,32V4.141A4.144,4.144,0,0,1,4.141,0H27.49a5.676,5.676,0,0,1,3.991,1.655l3,3a5.611,5.611,0,0,1,1.655,3.993V32A4.144,4.144,0,0,1,32,36.136ZM4.141,2.258A1.885,1.885,0,0,0,2.258,4.141V32a1.885,1.885,0,0,0,1.882,1.882H32A1.885,1.885,0,0,0,33.877,32V8.647a3.366,3.366,0,0,0-.992-2.4l-3-3a3.4,3.4,0,0,0-2.4-.994Zm0,0" fill="#428dff"/>
  <path id="Path_29" data-name="Path 29" d="M102.271,10.539H86.461A1.13,1.13,0,0,1,85.332,9.41V1.129a1.129,1.129,0,1,1,2.258,0V8.281h13.551V1.129a1.129,1.129,0,0,1,2.258,0V9.41A1.13,1.13,0,0,1,102.271,10.539Zm0,0" transform="translate(-79.309)" fill="#428dff"/>
  <path id="Path_30" data-name="Path 30" d="M166.775,237.551a6.775,6.775,0,1,1,6.775-6.775A6.784,6.784,0,0,1,166.775,237.551Zm0-11.292a4.517,4.517,0,1,0,4.517,4.517A4.522,4.522,0,0,0,166.775,226.258Zm0,0" transform="translate(-148.708 -208.191)" fill="#428dff"/>
</svg>
