<svg xmlns="http://www.w3.org/2000/svg" width="51.497" height="51.497" viewBox="0 0 51.497 51.497">
  <g id="chat" transform="translate(0)">
    <path id="Path_19" data-name="Path 19" d="M46.342,44.171A21.189,21.189,0,0,0,40,11.49,21.17,21.17,0,1,0,5.154,35.018L.45,39.661A1.51,1.51,0,0,0,1.5,42.244l11.361.054a21.151,21.151,0,0,0,17.461,9.2l19.67-.1a1.51,1.51,0,0,0,1.052-2.583ZM8.324,34a18.153,18.153,0,1,1,12.259,5.319L5.169,39.244l3.147-3.106A1.509,1.509,0,0,0,8.324,34Zm22,14.482a18.06,18.06,0,0,1-13.635-6.164c5.744.038,4.219.028,4.483.028A21.2,21.2,0,0,0,41.76,16.232a18.152,18.152,0,0,1,1.413,26.919,1.509,1.509,0,0,0,.008,2.14L46.328,48.4l-16,.083Z" transform="translate(0)" fill="#428dff"/>
    <path id="Path_20" data-name="Path 20" d="M107.515,139.017h18.1a1.509,1.509,0,0,0,0-3.017h-18.1a1.509,1.509,0,0,0,0,3.017Z" transform="translate(-95.344 -122.321)" fill="#428dff"/>
    <path id="Path_21" data-name="Path 21" d="M107.515,199.017h18.1a1.509,1.509,0,0,0,0-3.017h-18.1a1.509,1.509,0,0,0,0,3.017Z" transform="translate(-95.344 -176.286)" fill="#428dff"/>
    <path id="Path_22" data-name="Path 22" d="M107.515,259.017h18.1a1.509,1.509,0,0,0,0-3.017h-18.1a1.509,1.509,0,0,0,0,3.017Z" transform="translate(-95.344 -230.252)" fill="#428dff"/>
  </g>
</svg>
