<svg xmlns="http://www.w3.org/2000/svg" width="52.246" height="52.246" viewBox="0 0 52.246 52.246">
  <path id="focus" d="M52.145,6.975a1.788,1.788,0,0,0-1.494-1.2L46.9,5.345,46.468,1.6A1.8,1.8,0,0,0,43.405.528L35.993,7.94a1.791,1.791,0,0,0-.516,1.48l.536,4.647-1.651,1.651a20.793,20.793,0,1,0,2.165,2.165l1.651-1.651,4.647.536a1.791,1.791,0,0,0,1.48-.516l7.412-7.412a1.788,1.788,0,0,0,.427-1.866ZM33.319,44A17.729,17.729,0,1,1,32.19,17.891l-2.8,2.8a13.789,13.789,0,1,0,2.165,2.165l2.8-2.8A17.754,17.754,0,0,1,33.319,44ZM19.974,32.272a1.531,1.531,0,0,0,2.165,0l2.035-2.036a3.6,3.6,0,1,1-2.165-2.165l-2.035,2.036a1.531,1.531,0,0,0,0,2.165Zm4.316-6.482a6.663,6.663,0,1,0,2.165,2.165l2.918-2.918a10.728,10.728,0,1,1-2.165-2.165ZM42.571,13.657,39,13.245l-.412-3.57,5.137-5.137.259,2.243a1.679,1.679,0,0,0,1.48,1.481l2.243.259Zm0,0" transform="translate(-0.001 0.001)" fill="#428dff"/>
</svg>
