<svg xmlns="http://www.w3.org/2000/svg" width="59.921" height="51.656" viewBox="0 0 59.921 51.656">
  <g id="folder" transform="translate(0 -35.31)">
    <g id="Group_2" data-name="Group 2" transform="translate(0 35.31)">
      <g id="Group_1" data-name="Group 1">
        <path id="Path_13" data-name="Path 13" d="M71.653,213.927h8.265a1.033,1.033,0,1,0,0-2.066H71.653a1.033,1.033,0,1,0,0,2.066Z" transform="translate(-62.355 -191.199)" fill="#428dff"/>
        <path id="Path_14" data-name="Path 14" d="M84.051,247.172h-12.4a1.033,1.033,0,1,0,0,2.066h12.4a1.033,1.033,0,0,0,0-2.066Z" transform="translate(-62.355 -222.377)" fill="#428dff"/>
        <path id="Path_15" data-name="Path 15" d="M71.653,284.548h4.132a1.033,1.033,0,1,0,0-2.066H71.653a1.033,1.033,0,1,0,0,2.066Z" transform="translate(-62.355 -253.555)" fill="#428dff"/>
        <path id="Path_16" data-name="Path 16" d="M146.407,282.483h-4.132a1.033,1.033,0,0,0,0,2.066h4.132a1.033,1.033,0,0,0,0-2.066Z" transform="translate(-124.711 -253.556)" fill="#428dff"/>
        <path id="Path_17" data-name="Path 17" d="M79.918,317.793H71.653a1.033,1.033,0,1,0,0,2.066h8.265a1.033,1.033,0,1,0,0-2.066Z" transform="translate(-62.355 -284.733)" fill="#428dff"/>
        <path id="Path_18" data-name="Path 18" d="M58.268,59.072l1.343-1.343a1,1,0,0,0,0-1.446l-3.823-3.926a5.047,5.047,0,0,0-4.132-4.546v-3.2a5.115,5.115,0,0,0-5.166-5.166h-28a5.2,5.2,0,0,0-5.062-4.132H9.3a5.115,5.115,0,0,0-5.166,5.166v7.335A5.2,5.2,0,0,0,0,52.873V81.8a5.115,5.115,0,0,0,5.166,5.166H50.623A5.115,5.115,0,0,0,55.788,81.8V65.684l3.823-3.823a1,1,0,0,0,0-1.446ZM6.2,40.476a3.044,3.044,0,0,1,3.1-3.1h4.132a3.044,3.044,0,0,1,3.1,3.1.976.976,0,0,0,1.033,1.033H46.49a3.044,3.044,0,0,1,3.1,3.1v3.1H47.42a5.2,5.2,0,0,0-5.062-4.132H13.431a5.2,5.2,0,0,0-5.062,4.132H6.2ZM45.25,47.707H10.538a3.009,3.009,0,0,1,2.893-2.066H42.358A3.009,3.009,0,0,1,45.25,47.707ZM53.722,81.8a3.044,3.044,0,0,1-3.1,3.1H5.166a3.044,3.044,0,0,1-3.1-3.1V52.873a3.044,3.044,0,0,1,3.1-3.1H50.623a3.044,3.044,0,0,1,3.1,3.1Zm2.066-19.009v-1.24l1.033-1.033.62.62Zm0-4.132V55.353l1.653,1.653Z" transform="translate(0 -35.31)" fill="#428dff"/>
      </g>
    </g>
  </g>
</svg>
