<svg id="radio" xmlns="http://www.w3.org/2000/svg" width="51.964" height="51.964" viewBox="0 0 51.964 51.964">
  <path id="Path_1" data-name="Path 1" d="M176,108.147a2.165,2.165,0,1,0,4.33,0V82.165a2.165,2.165,0,1,0-4.33,0Zm0,0" transform="translate(-152.183 -69.174)" fill="#428dff"/>
  <path id="Path_2" data-name="Path 2" d="M2.165,96A2.166,2.166,0,0,0,0,98.165v21.652a2.165,2.165,0,1,0,4.33,0V98.165A2.166,2.166,0,0,0,2.165,96Zm0,0" transform="translate(0 -83.009)" fill="#428dff"/>
  <path id="Path_3" data-name="Path 3" d="M124.33,131.487V114.165a2.165,2.165,0,0,0-4.33,0v17.321a2.165,2.165,0,0,0,4.33,0Zm0,0" transform="translate(-103.761 -96.844)" fill="#428dff"/>
  <path id="Path_4" data-name="Path 4" d="M66.165,156.991a2.166,2.166,0,0,0,2.165-2.165v-8.661a2.165,2.165,0,0,0-4.33,0v8.661A2.166,2.166,0,0,0,66.165,156.991Zm0,0" transform="translate(-55.339 -124.513)" fill="#428dff"/>
  <path id="Path_5" data-name="Path 5" d="M236.33,131.487V114.165a2.165,2.165,0,0,0-4.33,0v17.321a2.165,2.165,0,0,0,4.33,0Zm0,0" transform="translate(-200.605 -96.844)" fill="#428dff"/>
  <path id="Path_6" data-name="Path 6" d="M354.165,96A2.166,2.166,0,0,0,352,98.165v21.652a2.165,2.165,0,1,0,4.33,0V98.165A2.166,2.166,0,0,0,354.165,96Zm0,0" transform="translate(-304.366 -83.009)" fill="#428dff"/>
  <path id="Path_7" data-name="Path 7" d="M290.165,144A2.166,2.166,0,0,0,288,146.165v8.661a2.165,2.165,0,1,0,4.33,0v-8.661A2.166,2.166,0,0,0,290.165,144Zm0,0" transform="translate(-249.027 -124.513)" fill="#428dff"/>
  <path id="Path_8" data-name="Path 8" d="M176,340.33a2.165,2.165,0,1,0,4.33,0v-2.165a2.165,2.165,0,1,0-4.33,0Zm0,0" transform="translate(-152.183 -290.531)" fill="#428dff"/>
  <path id="Path_9" data-name="Path 9" d="M178.165,6.5A2.166,2.166,0,0,0,180.33,4.33V2.165a2.165,2.165,0,1,0-4.33,0V4.33A2.166,2.166,0,0,0,178.165,6.5Zm0,0" transform="translate(-152.183)" fill="#428dff"/>
</svg>
