<svg xmlns="http://www.w3.org/2000/svg" width="50.14" height="50.14" viewBox="0 0 50.14 50.14">
  <path id="share" d="M39.4,28.652a10.709,10.709,0,0,0-8.643,4.421l-9.778-4.89a10.6,10.6,0,0,0,.514-3.112,10.6,10.6,0,0,0-.514-3.112l9.778-4.89a10.7,10.7,0,1,0-2.1-6.323,10.6,10.6,0,0,0,.514,3.112l-9.778,4.89a10.744,10.744,0,1,0,0,12.647l9.778,4.89a10.6,10.6,0,0,0-.514,3.112A10.744,10.744,0,1,0,39.4,28.652Zm0-25.07a7.163,7.163,0,1,1-7.163,7.163A7.171,7.171,0,0,1,39.4,3.581ZM10.744,32.233a7.163,7.163,0,1,1,7.163-7.163,7.171,7.171,0,0,1-7.163,7.163ZM39.4,46.559A7.163,7.163,0,1,1,46.559,39.4,7.171,7.171,0,0,1,39.4,46.559Z" fill="#428dff"/>
</svg>
