<svg xmlns="http://www.w3.org/2000/svg" width="43.981" height="51.648" viewBox="0 0 43.981 51.648">
  <g id="surface1" transform="translate(0 0.001)">
    <path id="Path_10" data-name="Path 10" d="M43.93,14.012l0-.04c-.022-.5-.037-1.021-.047-1.605A5.474,5.474,0,0,0,38.728,7,21.241,21.241,0,0,1,24.271.911L24.237.879a3.305,3.305,0,0,0-4.492,0l-.033.032A21.243,21.243,0,0,1,5.255,7.005,5.474,5.474,0,0,0,.1,12.368c-.009.58-.024,1.1-.046,1.6l0,.093C-.064,20.121-.207,27.657,2.314,34.5a26.009,26.009,0,0,0,6.24,9.719,32.641,32.641,0,0,0,12.211,7.222,3.782,3.782,0,0,0,.5.136,3.7,3.7,0,0,0,1.453,0,3.794,3.794,0,0,0,.5-.137,32.662,32.662,0,0,0,12.2-7.226,26.045,26.045,0,0,0,6.24-9.721C44.188,27.629,44.045,20.079,43.93,14.012ZM38.814,33.441C36.155,40.651,30.727,45.6,22.22,48.577a.761.761,0,0,1-.1.026.68.68,0,0,1-.266,0,.754.754,0,0,1-.1-.026c-8.516-2.969-13.947-7.918-16.6-15.128C2.834,27.144,2.966,20.227,3.082,14.124V14.09c.024-.525.039-1.074.048-1.677a2.433,2.433,0,0,1,2.293-2.381,26.59,26.59,0,0,0,9.025-1.985A23.612,23.612,0,0,0,21.8,3.1a.279.279,0,0,1,.375,0,23.621,23.621,0,0,0,7.355,4.941,26.591,26.591,0,0,0,9.026,1.985,2.432,2.432,0,0,1,2.293,2.382c.009.607.025,1.156.048,1.677C41.016,20.2,41.144,27.123,38.814,33.441Zm0,0" transform="translate(0 0)" fill="#428dff"/>
    <path id="Path_11" data-name="Path 11" d="M103.27,128.41a12.872,12.872,0,1,0,12.871,12.871A12.886,12.886,0,0,0,103.27,128.41Zm0,22.712a9.841,9.841,0,1,1,9.84-9.841A9.852,9.852,0,0,1,103.27,151.122Zm0,0" transform="translate(-81.279 -115.458)" fill="#428dff"/>
    <path id="Path_12" data-name="Path 12" d="M163.861,212.435l-5.978,5.978-1.623-1.623a1.515,1.515,0,1,0-2.143,2.143l2.694,2.694a1.515,1.515,0,0,0,2.143,0l7.05-7.05a1.515,1.515,0,1,0-2.143-2.143Zm0,0" transform="translate(-138.171 -190.607)" fill="#428dff"/>
  </g>
</svg>
